{"asset":{"generator":"scripts/preparar-pieza3d.mjs · malla CC0 de Poly Haven","version":"2.0"},"scene":0,"scenes":[{"name":"Scene","nodes":[0]}],"nodes":[{"mesh":0,"name":"cross_pein_hammer"}],"materials":[{"name":"acero","doubleSided":false,"pbrMetallicRoughness":{"baseColorFactor":[0.28,0.3,0.34,1],"metallicFactor":1,"roughnessFactor":0.38},"emissiveFactor":[0,0,0]}],"meshes":[{"name":"RetopoFlow.001","primitives":[{"attributes":{"POSITION":0,"NORMAL":1},"indices":3,"material":0}]}],"accessors":[{"bufferView":0,"componentType":5126,"count":1432,"max":[0.05470331013202667,0.17704766988754272,0.014458962716162205],"min":[-0.04436834529042244,-0.12320221960544586,-0.009816780686378479],"type":"VEC3"},{"bufferView":1,"componentType":5126,"count":1432,"type":"VEC3"},{"bufferView":2,"componentType":5126,"count":1432,"type":"VEC2"},{"bufferView":3,"componentType":5123,"count":6372,"type":"SCALAR"}],"bufferViews":[{"buffer":0,"byteLength":17184,"byteOffset":0,"target":34962},{"buffer":0,"byteLength":17184,"byteOffset":17184,"target":34962},{"buffer":0,"byteLength":11456,"byteOffset":34368,"target":34962},{"buffer":0,"byteLength":12744,"byteOffset":45824,"target":34963}],"buffers":[{"byteLength":58568,"uri":"martillo.bin"}]}